<?xml version="1.0" encoding="utf-8"?>
<svg id="master-artboard" viewBox="0 0 1400 980" version="1.1" xmlns="http://www.w3.org/2000/svg" x="0px" y="0px" style="enable-background:new 0 0 1400 980;" width="1400px" height="980px"><g transform="matrix(0.9999999377192283, 0, 0, 0.9999999377192283, 0.000035051170812039345, 0.0000028484564609243535)"><g transform="matrix(0.9359288215637206, 0, 0, 0.9359288215637206, 62.59294773097531, 41.08264493411838)"><rect id="ee-background" x="0" y="0" width="1400" height="980" style="fill: white; fill-opacity: 0; pointer-events: none;" transform="matrix(1.9600001573562622, 0, 0, 1.9600001573562622, 209.99998474121082, 0)"/><g transform="matrix(3.3359544277191167, 0, 0, 3.3359544277191167, -1598.994030711669, -3041.3852354205283)"><path d="M 681.4430541992188 998.077392578125 L 628.3270263671875 995.5819091796875" style="fill: rgb(161, 161, 103); fill-opacity: 1; stroke: rgb(0, 0, 0); stroke-opacity: 1; stroke-width: 0; paint-order: fill;"/><path d="M 670.39208984375 1009.12841796875 L 639.0215454101562 1006.2765502929688" style="fill: rgb(161, 161, 103); fill-opacity: 1; stroke: rgb(0, 0, 0); stroke-opacity: 1; stroke-width: 0; paint-order: fill;"/></g><path d="M 256.37554931640625 389.6935119628906" style="fill: rgb(196, 145, 121); fill-opacity: 1; stroke: rgb(0, 0, 0); stroke-opacity: 1; stroke-width: 0; paint-order: fill;" transform="matrix(1.9600001573562622, 0, 0, 1.9600001573562622, 209.99998474121082, 120.75741280155347)"/><g transform="matrix(1.6992011070251465, 0, 0, 1.6992011070251465, -718.2154052233876, 154.38319719665913)"><g id="g-7" transform="matrix(1, 0, 0, 1, 0, 0)">
	<g id="g-8">
		<path class="st0" d="M652,46c27.6,0,50,22.4,50,50s-22.4,50-50,50s-50-22.4-50-50S624.4,46,652,46z" style="fill: rgb(255, 210, 176);"/>
	</g>
</g></g><g transform="matrix(0.12730726599693298, -1.0654911994934082, 1.0654911994934082, 0.12730726599693298, 102.6939423107923, 687.5339540325965)"><g id="g-9" transform="matrix(1, 0, 0, 1, 0, 0)">
	<g id="g-10">
		<path class="st0" d="M355.7,185.2c20.2,7.9,30.5,31.1,22.6,51.2c-8,20.1-30.7,29.9-50.8,22c-2.3-0.9-4.4-2.1-6.5-3.4&#10;&#9;&#9;&#9;c11.8,25.2,41.9,36.1,67.1,24.2c11.6-5.4,20.7-15.1,25.4-27c10-25.9-2.9-54.9-28.7-64.9C375.5,183.8,365.4,183,355.7,185.2z" style="fill: rgb(227, 178, 143);"/>
	</g>
</g></g><g transform="matrix(1.69920015335083, 0, 0, 1.69920015335083, -210.10012507202043, 153.7099489056435)"><g id="g-11" transform="matrix(1, 0, 0, 1, 0, 0)">
	<g id="g-12">
		<path class="st0" d="M652,46c27.6,0,50,22.4,50,50s-22.4,50-50,50s-50-22.4-50-50S624.4,46,652,46z" style="fill: rgb(255, 210, 176);"/>
	</g>
</g></g><g transform="matrix(-0.8367213010787965, -0.6718177199363708, 0.6718177199363708, -0.8367213010787965, 1036.684069874269, 768.7172426068153)"><g id="g-13" transform="matrix(1, 0, 0, 1, 0, 0)">
	<g id="g-14">
		<path class="st0" d="M355.7,185.2c20.2,7.9,30.5,31.1,22.6,51.2c-8,20.1-30.7,29.9-50.8,22c-2.3-0.9-4.4-2.1-6.5-3.4&#10;&#9;&#9;&#9;c11.8,25.2,41.9,36.1,67.1,24.2c11.6-5.4,20.7-15.1,25.4-27c10-25.9-2.9-54.9-28.7-64.9C375.5,183.8,365.4,183,355.7,185.2z" style="fill: rgb(227, 178, 143);"/>
	</g>
</g></g><g transform="matrix(4.90000057220459, 0, 0, 4.90000057220459, -2549.072399852294, -49.5949827349815)"><g id="g-3" transform="matrix(1, 0, 0, 1, 0, 0)">
	<g id="g-4">
		<path class="st0" d="M 652 46 C 679.6 46 702 68.4 702 96 C 702 123.6 680.1938110351563 129.6693878173828 652.5938110351562 129.6693878173828 C 624.9938110351562 129.6693878173828 602 123.6 602 96 C 602 68.4 624.4 46 652 46 Z" style="fill: rgb(126, 95, 80);"/>
	</g>
</g></g><g transform="matrix(3.4629304409027104, 0, 0, 3.4629304409027104, -1608.609265086669, 122.71455705994032)"><g id="g-17" transform="matrix(1, 0, 0, 1, 0, 0)">
	<g id="g-18">
		<path class="st0" d="M 650.193603515625 53.94823455810547 C 678.1548461914062 53.22566604614258 700.193603515625 67.67742767333985 700.193603515625 95.27742767333984 C 700.193603515625 122.87742767333984 678.5161376953125 123.60041809082031 650.9161376953125 123.60041809082031 C 623.3161376953125 123.60041809082031 603.0838623046875 122.51615295410156 603.0838623046875 94.91615295410156 C 603.0838623046875 67.31615295410157 622.2323608398438 54.67080307006836 650.193603515625 53.94823455810547 Z" style="fill: rgb(255, 210, 176);"/>
	</g>
</g></g><path d="M 478.32330322265625 350.3515930175781 L 601.545166015625 368.90911865234375" style="fill: rgb(255, 210, 176); fill-opacity: 1; stroke: rgb(0, 0, 0); stroke-opacity: 1; stroke-width: 0; paint-order: fill;" transform="matrix(1.9600002765655518, 0, 0, 1.9600002765655518, 155.72787785766707, -189.9523740924034)"/><path d="M 386.278076171875 100.938720703125" style="fill: rgb(255, 210, 176); fill-opacity: 1; stroke: rgb(0, 0, 0); stroke-opacity: 1; stroke-width: 0; paint-order: fill;" transform="matrix(1.9600001573562622, 0, 0, 1.9600001573562622, 209.99998474121082, 0)"/><path d="M 129.44219970703125 248.65646362304688" style="fill: rgb(196, 145, 121); fill-opacity: 1; stroke: rgb(0, 0, 0); stroke-opacity: 1; stroke-width: 0; paint-order: fill;" transform="matrix(1.9600001573562622, 0, 0, 1.9600001573562622, 209.99998474121082, 0)"/><g transform="matrix(2.6594414710998535, 0, 0, 2.6594414710998535, -1159.5183227038563, 148.0397828900185)"><g id="g-21" transform="matrix(1, 0, 0, 1, 0, 0)">
	<g id="g-22">
		<path class="st0" d="M 652 46 C 679.6 46 702 68.4 702 96 C 702 123.6 691.088525390625 141.6234130859375 663.488525390625 141.6234130859375 C 635.888525390625 141.6234130859375 602 123.6 602 96 C 602 68.4 624.4 46 652 46 Z" style="fill: rgb(255, 210, 176);"/>
	</g>
</g></g><path d="M 468.67340087890625 382.2705078125 L 472.3849182128906 385.2397155761719" style="fill: rgb(255, 210, 176); fill-opacity: 1; stroke: rgb(0, 0, 0); stroke-opacity: 1; stroke-width: 0; paint-order: fill;" transform="matrix(1.9600002765655518, 0, 0, 1.9600002765655518, 155.72787785766707, -189.9523740924034)"/><g transform="matrix(2.6594414710998535, 0, 0, 2.6594414710998535, -1016.0807616687001, 146.86137712829975)"><g id="g-23" transform="matrix(1, 0, 0, 1, 0, 0)">
	<g id="g-24">
		<path class="st0" d="M 652 46 C 679.6 46 702 68.4 702 96 C 702 123.6 671.3938842773438 142.1704864501953 643.7938842773438 142.1704864501953 C 616.1938842773437 142.1704864501953 602 123.6 602 96 C 602 68.4 624.4 46 652 46 Z" style="fill: rgb(255, 210, 176);"/>
	</g>
</g></g><g transform="matrix(0.3449069559574127, 0, 0, 0.3449069559574127, 339.58050537109375, 372.005273085491)"><g id="g-27" transform="matrix(1, 0, 0, 1, 0, 0)">
	<g id="g-28">
		<path class="st0" d="M 652 46 C 679.6 46 692.853515625 68.4 692.853515625 96 C 692.853515625 123.6 679.6 146 652 146 C 624.4 146 613.43310546875 123.6 613.43310546875 96 C 613.43310546875 68.4 624.4 46 652 46 Z" style="fill: rgb(51, 51, 51);"/>
	</g>
</g></g><path d="M 239.4728240966797 300.64581298828125" style="fill: rgb(51, 51, 51); fill-opacity: 1; stroke: rgb(0, 0, 0); stroke-opacity: 1; stroke-width: 0; paint-order: fill;" transform="matrix(1.412134536627448, 0, 0, 1.412134536627448, 319.03741247098003, 151.03937186722573)"/><g transform="matrix(0.3449069559574127, 0, 0, 0.3449069559574127, 499.60699462890625, 373.52712367142857)"><g id="g-29" transform="matrix(1, 0, 0, 1, 0, 0)">
	<g id="g-30">
		<path class="st0" d="M 652 46 C 679.6 46 692.853515625 68.4 692.853515625 96 C 692.853515625 123.6 679.6 146 652 146 C 624.4 146 613.43310546875 123.6 613.43310546875 96 C 613.43310546875 68.4 624.4 46 652 46 Z" style="fill: rgb(51, 51, 51);"/>
	</g>
</g></g><g transform="matrix(0.7405358552932739, 0, 0, 0.7405358552932739, 162.80601501464844, 369.738915663616)"><g id="g-33" transform="matrix(1, 0, 0, 1, 0, 0)">
	<g id="g-34">
		<path class="st0" d="M 649.241455078125 72.20633697509766 C 676.841455078125 72.20633697509766 702 68.4 702 96 C 702 123.6 679.6 146 652 146 C 624.4 146 602 123.6 602 96 C 602 68.4 621.641455078125 72.20633697509766 649.241455078125 72.20633697509766 Z" style="fill: rgb(51, 51, 51);"/>
	</g>
</g></g><path d="M 316.17059326171875 320.3916931152344" style="fill: rgb(51, 51, 51); fill-opacity: 1; stroke: rgb(0, 0, 0); stroke-opacity: 1; stroke-width: 0; paint-order: fill;" transform="matrix(1.9600001573562622, 0, 0, 1.9600001573562622, 211.81834613139756, -18.183613901866238)"/><path d="M 165.32423400878906 432.9609375" style="fill: rgb(255, 131, 110); fill-opacity: 1; stroke: rgb(0, 0, 0); stroke-opacity: 1; stroke-width: 0; paint-order: fill;" transform="matrix(1.9600001573562622, 0, 0, 1.9600001573562622, 415.5596817252816, -436.81433926833415)"/><path d="M 355.918701171875 122.3625259399414" style="fill: rgb(255, 131, 110); fill-opacity: 1; stroke: rgb(0, 0, 0); stroke-opacity: 1; stroke-width: 0; paint-order: fill;" transform="matrix(1.5052320019874088, 0, 0, 1.5052320019874088, 180.1364913616004, 460.24671297574605)"/><path d="M 355.918701171875 122.3625259399414" style="fill: rgb(255, 131, 110); fill-opacity: 1; stroke: rgb(0, 0, 0); stroke-opacity: 1; stroke-width: 0; paint-order: fill;" transform="matrix(1.5052320019874088, 0, 0, 1.5052320019874088, 412.1480295348773, 461.75768599744333)"/><path d="M 92.13972473144531 248.20547485351562 L 87.4124526977539 244.52870178222656" style="fill: rgb(255, 210, 176); fill-opacity: 1; stroke: rgb(0, 0, 0); stroke-opacity: 1; stroke-width: 0; paint-order: fill;" transform="matrix(1.9600002765655518, 0, 0, 1.9600002765655518, 155.72787785766707, -189.9523740924034)"/><g transform="matrix(-1.085868000984192, 0.268949031829834, -0.268949031829834, -1.085868000984192, 1184.369372608644, 329.58363664978395)"><g id="g-41" transform="matrix(1, 0, 0, 1, 0, 0)">
	<g id="g-42">
		<path class="st0" d="M355.7,185.2c20.2,7.9,30.5,31.1,22.6,51.2c-8,20.1-30.7,29.9-50.8,22c-2.3-0.9-4.4-2.1-6.5-3.4&#10;&#9;&#9;&#9;c11.8,25.2,41.9,36.1,67.1,24.2c11.6-5.4,20.7-15.1,25.4-27c10-25.9-2.9-54.9-28.7-64.9C375.5,183.8,365.4,183,355.7,185.2z" style="fill: rgb(126, 95, 80);"/>
	</g>
</g></g><g transform="matrix(-1.1183385848999023, 0.027694579213857658, -0.027694579213857658, -1.1183385848999023, 1148.5540649914565, 463.8789857708778)"><g id="g-43" transform="matrix(1, 0, 0, 1, 0, 0)">
	<g id="g-44">
		<path class="st0" d="M355.7,185.2c20.2,7.9,30.5,31.1,22.6,51.2c-8,20.1-30.7,29.9-50.8,22c-2.3-0.9-4.4-2.1-6.5-3.4&#10;&#9;&#9;&#9;c11.8,25.2,41.9,36.1,67.1,24.2c11.6-5.4,20.7-15.1,25.4-27c10-25.9-2.9-54.9-28.7-64.9C375.5,183.8,365.4,183,355.7,185.2z" style="fill: rgb(126, 95, 80);"/>
	</g>
</g></g><path d="M 91.5616226196289 425.76593017578125" style="fill: rgb(227, 178, 143); fill-opacity: 1; stroke: rgb(0, 0, 0); stroke-opacity: 1; stroke-width: 0; paint-order: fill;" transform="matrix(1.9600001573562622, 0, 0, 1.9600001573562622, 209.99998474121082, 0)"/><g transform="matrix(9.42799472808838, 0, 0, 9.42799472808838, 493.1337280273438, 530.9421237206778)"><path d="M12.4,8h7.2l1.6-3.1c0.3-0.6,0.3-1.4-0.1-1.9S20.1,2,19.4,2h-6.8c-0.7,0-1.3,0.4-1.7,0.9s-0.4,1.3-0.1,1.9L12.4,8z"/><path d="M20.8,18H16c-0.6,0-1-0.4-1-1s0.4-1,1-1h4.4l-1.2-6h-6.4l-2.6,12.8c-0.2,1,0.1,2,0.8,2.7l3.5,3.5c0.4,0.4,0.9,0.6,1.4,0.6&#10;&#9;s1-0.2,1.4-0.6l3.5-3.5c0.7-0.7,1-1.7,0.8-2.7L20.8,18z"/></g></g></g></svg>