<?xml version="1.0" encoding="utf-8"?>
<svg id="master-artboard" viewBox="0 0 1400 280" version="1.1" xmlns="http://www.w3.org/2000/svg" x="0px" y="0px" style="enable-background:new 0 0 336 235.2;" width="1400px" height="280px"><defs><style id="ee-google-fonts">@import url(https://fonts.googleapis.com/css?family=ABeeZee:400,400italic);</style></defs><path d="M 353.31317138671875 259.94000244140625 L 327.1331481933594 318.8800048828125 L 313.97314453125 318.8800048828125 L 287.6531677246094 259.94000244140625 L 287.6531677246094 341 L 275.05316162109375 341 L 275.05316162109375 243 L 293.67315673828125 243 L 320.8331604003906 305.0199890136719 L 347.5731506347656 243 L 366.6131591796875 243 L 366.6131591796875 341 L 353.31317138671875 341 L 353.31317138671875 259.94000244140625 ZM 439.4455871582031 304.6000061035156 C 439.4455871582031 300.9599914550781 438.8622741699219 297.50665283203125 437.6955871582031 294.239990234375 C 436.5289306640625 290.97332763671875 434.8955993652344 288.1266784667969 432.79559326171875 285.70001220703125 C 430.6955871582031 283.2733459472656 428.2222595214844 281.336669921875 425.3756103515625 279.8900146484375 C 422.5289306640625 278.4433288574219 419.42559814453125 277.7200012207031 416.06561279296875 277.7200012207031 C 408.6922607421875 277.7200012207031 402.9522705078125 280.14666748046875 398.8455810546875 285 C 394.7389221191406 289.85333251953125 392.68560791015625 296.2933349609375 392.68560791015625 304.32000732421875 C 392.68560791015625 307.9599914550781 393.2689208984375 311.4366760253906 394.43560791015625 314.75 C 395.6022644042969 318.0633239746094 397.235595703125 320.9566650390625 399.3356018066406 323.42999267578125 C 401.43560791015625 325.9033203125 403.908935546875 327.86334228515625 406.7555847167969 329.30999755859375 C 409.6022644042969 330.75665283203125 412.7055969238281 331.4800109863281 416.06561279296875 331.4800109863281 C 419.7055969238281 331.4800109863281 422.9722595214844 330.82666015625 425.8656005859375 329.5199890136719 C 428.7589416503906 328.21331787109375 431.20892333984375 326.3699951171875 433.2156066894531 323.989990234375 C 435.2222595214844 321.6099853515625 436.76226806640625 318.78668212890625 437.8356018066406 315.5199890136719 C 438.908935546875 312.2533264160156 439.4455871582031 308.61334228515625 439.4455871582031 304.6000061035156 M 379.80560302734375 304.6000061035156 C 379.80560302734375 298.7200012207031 380.7389221191406 293.42333984375 382.6055908203125 288.7099914550781 C 384.4722595214844 283.9966735839844 387.0155944824219 280.00665283203125 390.235595703125 276.739990234375 C 393.4555969238281 273.47332763671875 397.2822570800781 270.9533386230469 401.7156066894531 269.17999267578125 C 406.14892578125 267.40667724609375 410.9322509765625 266.5199890136719 416.06561279296875 266.5199890136719 C 421.1055908203125 266.5199890136719 425.8422546386719 267.40667724609375 430.2756042480469 269.17999267578125 C 434.70892333984375 270.9533386230469 438.5589294433594 273.47332763671875 441.8255920410156 276.739990234375 C 445.0922546386719 280.00665283203125 447.658935546875 283.97332763671875 449.5256042480469 288.6400146484375 C 451.39227294921875 293.3066711425781 452.3255920410156 298.5333251953125 452.3255920410156 304.32000732421875 C 452.3255920410156 310.1066589355469 451.41558837890625 315.3566589355469 449.5955810546875 320.07000732421875 C 447.7756042480469 324.7833251953125 445.2322692871094 328.82000732421875 441.9656066894531 332.17999267578125 C 438.69891357421875 335.5400085449219 434.84893798828125 338.1300048828125 430.41558837890625 339.95001220703125 C 425.9822692871094 341.7699890136719 421.19891357421875 342.67999267578125 416.06561279296875 342.67999267578125 C 410.83892822265625 342.67999267578125 406.0089416503906 341.7466735839844 401.5755920410156 339.8800048828125 C 397.14227294921875 338.0133361816406 393.31561279296875 335.3999938964844 390.0956115722656 332.0400085449219 C 386.8756103515625 328.67999267578125 384.3555908203125 324.6666564941406 382.53558349609375 320 C 380.7156066894531 315.3333435058594 379.80560302734375 310.20001220703125 379.80560302734375 304.6000061035156 ZM 510.6111145019531 281.5 C 507.9044494628906 280.1933288574219 505.38446044921875 279.2366638183594 503.0511169433594 278.6300048828125 C 500.7177734375 278.0233459472656 498.1044616699219 277.7200012207031 495.21112060546875 277.7200012207031 C 491.9444580078125 277.7200012207031 488.8877868652344 278.32666015625 486.0411376953125 279.5400085449219 C 483.1944580078125 280.7533264160156 480.74444580078125 282.5033264160156 478.6911315917969 284.7900085449219 C 476.6377868652344 287.07666015625 475.0278015136719 289.85333251953125 473.8611145019531 293.1199951171875 C 472.6944580078125 296.38665771484375 472.1111145019531 300.1199951171875 472.1111145019531 304.32000732421875 C 472.1111145019531 308.14666748046875 472.6477966308594 311.6933288574219 473.72113037109375 314.9599914550781 C 474.7944641113281 318.2266540527344 476.3111267089844 321.0966796875 478.2711181640625 323.57000732421875 C 480.2311096191406 326.0433349609375 482.564453125 327.9800109863281 485.2711181640625 329.3800048828125 C 487.977783203125 330.7799987792969 491.0111083984375 331.4800109863281 494.3711242675781 331.4800109863281 C 497.91778564453125 331.4800109863281 500.95111083984375 331.1066589355469 503.47113037109375 330.3599853515625 C 505.9911193847656 329.61334228515625 508.6977844238281 328.4466552734375 511.59112548828125 326.8599853515625 L 515.5111083984375 337.5 C 512.5244750976562 339.086669921875 509.2577819824219 340.3466796875 505.71112060546875 341.2799987792969 C 502.1644592285156 342.2133483886719 498.1044616699219 342.67999267578125 493.5311279296875 342.67999267578125 C 488.304443359375 342.67999267578125 483.59112548828125 341.7466735839844 479.39111328125 339.8800048828125 C 475.1911315917969 338.0133361816406 471.5977783203125 335.3999938964844 468.6111145019531 332.0400085449219 C 465.62445068359375 328.67999267578125 463.314453125 324.6666564941406 461.6811218261719 320 C 460.04779052734375 315.3333435058594 459.2311096191406 310.20001220703125 459.2311096191406 304.6000061035156 C 459.2311096191406 299.3733215332031 460.04779052734375 294.45001220703125 461.6811218261719 289.83001708984375 C 463.314453125 285.2099914550781 465.6711120605469 281.17333984375 468.7511291503906 277.7200012207031 C 471.83111572265625 274.26666259765625 475.5411376953125 271.53668212890625 479.8811340332031 269.5299987792969 C 484.22113037109375 267.5233154296875 489.0977783203125 266.5199890136719 494.5111083984375 266.5199890136719 C 498.71112060546875 266.5199890136719 502.35113525390625 266.8933410644531 505.4311218261719 267.6400146484375 C 508.5111083984375 268.38665771484375 511.497802734375 269.4599914550781 514.39111328125 270.8599853515625 L 510.6111145019531 281.5 ZM 525.2044067382812 237.39999389648438 L 537.8043823242188 237.39999389648438 L 537.8043823242188 296.6199951171875 L 570.7044067382812 266.79998779296875 L 577.984375 274.7799987792969 L 549.8444213867188 299.70001220703125 L 584.1444091796875 334 L 575.4644165039062 342.3999938964844 L 537.8043823242188 303.6199951171875 L 537.8043823242188 341 L 525.2044067382812 341 L 525.2044067382812 237.39999389648438 ZM 671.4073486328125 259.94000244140625 L 645.2273559570312 318.8800048828125 L 632.0673828125 318.8800048828125 L 605.7473754882812 259.94000244140625 L 605.7473754882812 341 L 593.1473388671875 341 L 593.1473388671875 243 L 611.767333984375 243 L 638.9273681640625 305.0199890136719 L 665.6673583984375 243 L 684.7073974609375 243 L 684.7073974609375 341 L 671.4073486328125 341 L 671.4073486328125 259.94000244140625 ZM 757.5477905273438 304.6000061035156 C 757.5477905273438 300.9599914550781 756.9644775390625 297.50665283203125 755.7977905273438 294.239990234375 C 754.631103515625 290.97332763671875 752.997802734375 288.1266784667969 750.8978271484375 285.70001220703125 C 748.7977905273438 283.2733459472656 746.324462890625 281.336669921875 743.477783203125 279.8900146484375 C 740.631103515625 278.4433288574219 737.52783203125 277.7200012207031 734.1677856445312 277.7200012207031 C 726.7944946289062 277.7200012207031 721.054443359375 280.14666748046875 716.9478149414062 285 C 712.8411254882812 289.85333251953125 710.7877807617188 296.2933349609375 710.7877807617188 304.32000732421875 C 710.7877807617188 307.9599914550781 711.3711547851562 311.4366760253906 712.5377807617188 314.75 C 713.7044677734375 318.0633239746094 715.3378295898438 320.9566650390625 717.4378051757812 323.42999267578125 C 719.5377807617188 325.9033203125 722.0111083984375 327.86334228515625 724.8577880859375 329.30999755859375 C 727.7044677734375 330.75665283203125 730.8078002929688 331.4800109863281 734.1677856445312 331.4800109863281 C 737.8078002929688 331.4800109863281 741.074462890625 330.82666015625 743.9677734375 329.5199890136719 C 746.8611450195312 328.21331787109375 749.3111572265625 326.3699951171875 751.3178100585938 323.989990234375 C 753.324462890625 321.6099853515625 754.8644409179688 318.78668212890625 755.9378051757812 315.5199890136719 C 757.0111083984375 312.2533264160156 757.5477905273438 308.61334228515625 757.5477905273438 304.6000061035156 M 697.9077758789062 304.6000061035156 C 697.9077758789062 298.7200012207031 698.8411254882812 293.42333984375 700.7078247070312 288.7099914550781 C 702.574462890625 283.9966735839844 705.1177978515625 280.00665283203125 708.3378295898438 276.739990234375 C 711.5578002929688 273.47332763671875 715.3844604492188 270.9533386230469 719.8178100585938 269.17999267578125 C 724.2511596679688 267.40667724609375 729.0344848632812 266.5199890136719 734.1677856445312 266.5199890136719 C 739.2078247070312 266.5199890136719 743.9444580078125 267.40667724609375 748.3778076171875 269.17999267578125 C 752.8111572265625 270.9533386230469 756.6611328125 273.47332763671875 759.9277954101562 276.739990234375 C 763.1944580078125 280.00665283203125 765.7611083984375 283.97332763671875 767.6278076171875 288.6400146484375 C 769.4944458007812 293.3066711425781 770.4277954101562 298.5333251953125 770.4277954101562 304.32000732421875 C 770.4277954101562 310.1066589355469 769.517822265625 315.3566589355469 767.6978149414062 320.07000732421875 C 765.8778076171875 324.7833251953125 763.33447265625 328.82000732421875 760.0678100585938 332.17999267578125 C 756.8011474609375 335.5400085449219 752.9511108398438 338.1300048828125 748.517822265625 339.95001220703125 C 744.08447265625 341.7699890136719 739.3011474609375 342.67999267578125 734.1677856445312 342.67999267578125 C 728.941162109375 342.67999267578125 724.1111450195312 341.7466735839844 719.6777954101562 339.8800048828125 C 715.2444458007812 338.0133361816406 711.4177856445312 335.3999938964844 708.1978149414062 332.0400085449219 C 704.977783203125 328.67999267578125 702.4578247070312 324.6666564941406 700.6378173828125 320 C 698.8178100585938 315.3333435058594 697.9077758789062 310.20001220703125 697.9077758789062 304.6000061035156 ZM 794.4053344726562 280.3800048828125 C 797.0186767578125 276.4599914550781 800.3553466796875 273.16998291015625 804.4153442382812 270.510009765625 C 808.475341796875 267.8500061035156 813.3052978515625 266.5199890136719 818.9053344726562 266.5199890136719 C 827.11865234375 266.5199890136719 833.2553100585938 268.99334716796875 837.3153076171875 273.94000244140625 C 841.3753051757812 278.88665771484375 843.4053344726562 285.41998291015625 843.4053344726562 293.5400085449219 L 843.4053344726562 341 L 830.8052978515625 341 L 830.8052978515625 294.94000244140625 C 830.8052978515625 289.6199951171875 829.5919799804688 285.39666748046875 827.1653442382812 282.2699890136719 C 824.7386474609375 279.1433410644531 821.2853393554688 277.58001708984375 816.8052978515625 277.58001708984375 C 814.65869140625 277.58001708984375 812.5586547851562 277.9766540527344 810.5053100585938 278.7699890136719 C 808.4520263671875 279.5633239746094 806.4686889648438 280.6600036621094 804.5552978515625 282.05999755859375 C 802.6419677734375 283.4599914550781 800.86865234375 285.09332275390625 799.2353515625 286.9599914550781 C 797.6019897460938 288.82666015625 796.1320190429688 290.78668212890625 794.8253173828125 292.8399963378906 L 794.8253173828125 341 L 782.225341796875 341 L 782.225341796875 268.20001220703125 L 794.4053344726562 268.20001220703125 L 794.4053344726562 280.3800048828125 ZM 860.1087646484375 237.39999389648438 L 872.708740234375 237.39999389648438 L 872.708740234375 296.6199951171875 L 905.6087646484375 266.79998779296875 L 912.8887329101562 274.7799987792969 L 884.748779296875 299.70001220703125 L 919.0487670898438 334 L 910.3687744140625 342.3999938964844 L 872.708740234375 303.6199951171875 L 872.708740234375 341 L 860.1087646484375 341 L 860.1087646484375 237.39999389648438 ZM 932.5223999023438 309.7799987792969 C 933.3624267578125 316.59332275390625 935.742431640625 321.913330078125 939.6624145507812 325.739990234375 C 943.5823974609375 329.5666809082031 948.7623901367188 331.4800109863281 955.202392578125 331.4800109863281 C 959.4024047851562 331.4800109863281 963.1824340820312 331.03668212890625 966.5424194335938 330.1499938964844 C 969.9024047851562 329.2633361816406 973.1224365234375 328.1199951171875 976.202392578125 326.7200012207031 L 979.1423950195312 337.5 C 975.7824096679688 339.086669921875 972.0023803710938 340.3466796875 967.8024291992188 341.2799987792969 C 963.6024169921875 342.2133483886719 958.8890991210938 342.67999267578125 953.6624145507812 342.67999267578125 C 948.4357299804688 342.67999267578125 943.722412109375 341.8166809082031 939.5223999023438 340.0899963378906 C 935.3223876953125 338.36334228515625 931.7523803710938 335.8900146484375 928.8123779296875 332.6700134277344 C 925.8724365234375 329.45001220703125 923.6090698242188 325.48333740234375 922.0223999023438 320.7699890136719 C 920.4357299804688 316.0566711425781 919.6423950195312 310.6666564941406 919.6423950195312 304.6000061035156 C 919.6423950195312 299.1866760253906 920.4357299804688 294.14666748046875 922.0223999023438 289.4800109863281 C 923.6090698242188 284.8133239746094 925.8490600585938 280.77667236328125 928.742431640625 277.3699951171875 C 931.6357421875 273.96331787109375 935.0890502929688 271.3033447265625 939.1024169921875 269.3900146484375 C 943.11572265625 267.4766845703125 947.5957641601562 266.5199890136719 952.5424194335938 266.5199890136719 C 957.76904296875 266.5199890136719 962.3424072265625 267.40667724609375 966.2623901367188 269.17999267578125 C 970.1824340820312 270.9533386230469 973.4490966796875 273.3800048828125 976.0623779296875 276.4599914550781 C 978.6757202148438 279.5400085449219 980.6357421875 283.1333312988281 981.9423828125 287.239990234375 C 983.2490844726562 291.3466796875 983.9024047851562 295.6866760253906 983.9024047851562 300.260009765625 C 983.9024047851562 303.52667236328125 983.7623901367188 306.70001220703125 983.482421875 309.7799987792969 L 932.5223999023438 309.7799987792969 M 952.2623901367188 277.44000244140625 C 946.7557373046875 277.44000244140625 942.2523803710938 279.3066711425781 938.7523803710938 283.0400085449219 C 935.2523803710938 286.7733459472656 933.1290893554688 292.2799987792969 932.3823852539062 299.55999755859375 L 972.2824096679688 299.55999755859375 C 972.2824096679688 292.4666748046875 970.5090942382812 287.00665283203125 966.96240234375 283.17999267578125 C 963.415771484375 279.35333251953125 958.5157470703125 277.44000244140625 952.2623901367188 277.44000244140625 ZM 997.5250244140625 373.4800109863281 C 994.7249755859375 373.4800109863281 992.2750244140625 373.20001220703125 990.1749877929688 372.6400146484375 C 988.0750122070312 372.0799865722656 986.4183349609375 371.4266662597656 985.2050170898438 370.67999267578125 L 988.0050048828125 360.17999267578125 C 989.125 360.8333435058594 990.5016479492188 361.3933410644531 992.135009765625 361.8599853515625 C 993.768310546875 362.32666015625 995.6583251953125 362.55999755859375 997.8049926757812 362.55999755859375 C 999.7650146484375 362.55999755859375 1001.6083374023438 362.2799987792969 1003.3350219726562 361.7200012207031 C 1005.0616455078125 361.1600036621094 1006.7183227539062 360.17999267578125 1008.3049926757812 358.7799987792969 C 1009.8916625976562 357.3800048828125 1011.4083251953125 355.4666748046875 1012.85498046875 353.0400085449219 C 1014.3016967773438 350.61334228515625 1015.7249755859375 347.5799865722656 1017.125 343.94000244140625 L 1020.3450317382812 335.5400085449219 L 1013.625 335.5400085449219 L 985.2050170898438 271.55999755859375 L 996.405029296875 266.5199890136719 L 1023.5650024414062 327.1400146484375 L 1044.7049560546875 267.08001708984375 L 1056.324951171875 271.55999755859375 L 1029.5849609375 344.6400146484375 C 1027.5316162109375 350.239990234375 1025.3616943359375 354.8833312988281 1023.0750122070312 358.57000732421875 C 1020.788330078125 362.25665283203125 1018.3383178710938 365.2200012207031 1015.7249755859375 367.4599914550781 C 1013.1116943359375 369.70001220703125 1010.288330078125 371.2633361816406 1007.2550048828125 372.1499938964844 C 1004.2216796875 373.03668212890625 1000.9783325195312 373.4800109863281 997.5250244140625 373.4800109863281 Z" transform="matrix(1.4547502994537354, 0, 0, 1.4547502994537354, -151.5522918701172, -294.40936279296875)" style="fill: rgb(126, 95, 80); white-space: pre; color: rgb(126, 95, 80);"/><g transform="matrix(0.3239304721355438, 0, 0, 0.3239304721355438, -74.36426217068004, -17.775482198371606)"><rect id="ee-background" x="0" y="0" width="1400" height="280" style="fill: white; fill-opacity: 0; pointer-events: none;" transform="matrix(1.9600001573562622, 0, 0, 1.9600001573562622, 209.99998474121082, 0)"/><g transform="matrix(3.3359544277191167, 0, 0, 3.3359544277191167, -1598.994030711669, -3041.3852354205283)"><path d="M 681.4430541992188 998.077392578125 L 628.3270263671875 995.5819091796875" style="fill: rgb(161, 161, 103); fill-opacity: 1; stroke: rgb(0, 0, 0); stroke-opacity: 1; stroke-width: 0; paint-order: fill;"/><path d="M 670.39208984375 1009.12841796875 L 639.0215454101562 1006.2765502929688" style="fill: rgb(161, 161, 103); fill-opacity: 1; stroke: rgb(0, 0, 0); stroke-opacity: 1; stroke-width: 0; paint-order: fill;"/></g><path d="M 256.37554931640625 389.6935119628906" style="fill: rgb(196, 145, 121); fill-opacity: 1; stroke: rgb(0, 0, 0); stroke-opacity: 1; stroke-width: 0; paint-order: fill;" transform="matrix(1.9600001573562622, 0, 0, 1.9600001573562622, 209.99998474121082, 120.75741280155347)"/><g transform="matrix(1.6992011070251465, 0, 0, 1.6992011070251465, -718.2154052233876, 154.38319719665913)"><g id="g-7" transform="matrix(1, 0, 0, 1, 0, 0)">
	<g id="g-8">
		<path class="st0" d="M652,46c27.6,0,50,22.4,50,50s-22.4,50-50,50s-50-22.4-50-50S624.4,46,652,46z" style="fill: rgb(255, 210, 176);"/>
	</g>
</g></g><g transform="matrix(0.12730726599693298, -1.0654911994934082, 1.0654911994934082, 0.12730726599693298, 102.6939423107923, 687.5339540325965)"><g id="g-9" transform="matrix(1, 0, 0, 1, 0, 0)">
	<g id="g-10">
		<path class="st0" d="M355.7,185.2c20.2,7.9,30.5,31.1,22.6,51.2c-8,20.1-30.7,29.9-50.8,22c-2.3-0.9-4.4-2.1-6.5-3.4&#10;&#9;&#9;&#9;c11.8,25.2,41.9,36.1,67.1,24.2c11.6-5.4,20.7-15.1,25.4-27c10-25.9-2.9-54.9-28.7-64.9C375.5,183.8,365.4,183,355.7,185.2z" style="fill: rgb(227, 178, 143);"/>
	</g>
</g></g><g transform="matrix(1.69920015335083, 0, 0, 1.69920015335083, -210.10012507202043, 153.7099489056435)"><g id="g-11" transform="matrix(1, 0, 0, 1, 0, 0)">
	<g id="g-12">
		<path class="st0" d="M652,46c27.6,0,50,22.4,50,50s-22.4,50-50,50s-50-22.4-50-50S624.4,46,652,46z" style="fill: rgb(255, 210, 176);"/>
	</g>
</g></g><g transform="matrix(-0.8367213010787965, -0.6718177199363708, 0.6718177199363708, -0.8367213010787965, 1036.684069874269, 768.7172426068153)"><g id="g-13" transform="matrix(1, 0, 0, 1, 0, 0)">
	<g id="g-14">
		<path class="st0" d="M355.7,185.2c20.2,7.9,30.5,31.1,22.6,51.2c-8,20.1-30.7,29.9-50.8,22c-2.3-0.9-4.4-2.1-6.5-3.4&#10;&#9;&#9;&#9;c11.8,25.2,41.9,36.1,67.1,24.2c11.6-5.4,20.7-15.1,25.4-27c10-25.9-2.9-54.9-28.7-64.9C375.5,183.8,365.4,183,355.7,185.2z" style="fill: rgb(227, 178, 143);"/>
	</g>
</g></g><g transform="matrix(4.90000057220459, 0, 0, 4.90000057220459, -2549.072399852294, -49.5949827349815)"><g id="g-3" transform="matrix(1, 0, 0, 1, 0, 0)">
	<g id="g-4">
		<path class="st0" d="M 652 46 C 679.6 46 702 68.4 702 96 C 702 123.6 680.1938110351563 129.6693878173828 652.5938110351562 129.6693878173828 C 624.9938110351562 129.6693878173828 602 123.6 602 96 C 602 68.4 624.4 46 652 46 Z" style="fill: rgb(126, 95, 80);"/>
	</g>
</g></g><g transform="matrix(3.4629304409027104, 0, 0, 3.4629304409027104, -1608.609265086669, 122.71455705994032)"><g id="g-17" transform="matrix(1, 0, 0, 1, 0, 0)">
	<g id="g-18">
		<path class="st0" d="M 650.193603515625 53.94823455810547 C 678.1548461914062 53.22566604614258 700.193603515625 67.67742767333985 700.193603515625 95.27742767333984 C 700.193603515625 122.87742767333984 678.5161376953125 123.60041809082031 650.9161376953125 123.60041809082031 C 623.3161376953125 123.60041809082031 603.0838623046875 122.51615295410156 603.0838623046875 94.91615295410156 C 603.0838623046875 67.31615295410157 622.2323608398438 54.67080307006836 650.193603515625 53.94823455810547 Z" style="fill: rgb(255, 210, 176);"/>
	</g>
</g></g><path d="M 478.32330322265625 350.3515930175781 L 601.545166015625 368.90911865234375" style="fill: rgb(255, 210, 176); fill-opacity: 1; stroke: rgb(0, 0, 0); stroke-opacity: 1; stroke-width: 0; paint-order: fill;" transform="matrix(1.9600002765655518, 0, 0, 1.9600002765655518, 155.72787785766707, -189.9523740924034)"/><path d="M 386.278076171875 100.938720703125" style="fill: rgb(255, 210, 176); fill-opacity: 1; stroke: rgb(0, 0, 0); stroke-opacity: 1; stroke-width: 0; paint-order: fill;" transform="matrix(1.9600001573562622, 0, 0, 1.9600001573562622, 209.99998474121082, 0)"/><path d="M 129.44219970703125 248.65646362304688" style="fill: rgb(196, 145, 121); fill-opacity: 1; stroke: rgb(0, 0, 0); stroke-opacity: 1; stroke-width: 0; paint-order: fill;" transform="matrix(1.9600001573562622, 0, 0, 1.9600001573562622, 209.99998474121082, 0)"/><g transform="matrix(2.6594414710998535, 0, 0, 2.6594414710998535, -1159.5183227038563, 148.0397828900185)"><g id="g-21" transform="matrix(1, 0, 0, 1, 0, 0)">
	<g id="g-22">
		<path class="st0" d="M 652 46 C 679.6 46 702 68.4 702 96 C 702 123.6 691.088525390625 141.6234130859375 663.488525390625 141.6234130859375 C 635.888525390625 141.6234130859375 602 123.6 602 96 C 602 68.4 624.4 46 652 46 Z" style="fill: rgb(255, 210, 176);"/>
	</g>
</g></g><path d="M 468.67340087890625 382.2705078125 L 472.3849182128906 385.2397155761719" style="fill: rgb(255, 210, 176); fill-opacity: 1; stroke: rgb(0, 0, 0); stroke-opacity: 1; stroke-width: 0; paint-order: fill;" transform="matrix(1.9600002765655518, 0, 0, 1.9600002765655518, 155.72787785766707, -189.9523740924034)"/><g transform="matrix(2.6594414710998535, 0, 0, 2.6594414710998535, -1016.0807616687001, 146.86137712829975)"><g id="g-23" transform="matrix(1, 0, 0, 1, 0, 0)">
	<g id="g-24">
		<path class="st0" d="M 652 46 C 679.6 46 702 68.4 702 96 C 702 123.6 671.3938842773438 142.1704864501953 643.7938842773438 142.1704864501953 C 616.1938842773437 142.1704864501953 602 123.6 602 96 C 602 68.4 624.4 46 652 46 Z" style="fill: rgb(255, 210, 176);"/>
	</g>
</g></g><g transform="matrix(0.3449069559574127, 0, 0, 0.3449069559574127, 339.5804904198964, 348.4993591308596)"><g id="g-27" transform="matrix(1, 0, 0, 1, 0, 0)">
	<g id="g-28">
		<path class="st0" d="M 652 46 C 679.6 46 692.853515625 68.4 692.853515625 96 C 692.853515625 123.6 679.6 146 652 146 C 624.4 146 613.43310546875 123.6 613.43310546875 96 C 613.43310546875 68.4 624.4 46 652 46 Z" style="fill: rgb(51, 51, 51);"/>
	</g>
</g></g><path d="M 239.4728240966797 300.64581298828125" style="fill: rgb(51, 51, 51); fill-opacity: 1; stroke: rgb(0, 0, 0); stroke-opacity: 1; stroke-width: 0; paint-order: fill;" transform="matrix(1.412134536627448, 0, 0, 1.412134536627448, 319.03741247098003, 151.03937186722573)"/><g transform="matrix(0.3449069559574127, 0, 0, 0.3449069559574127, 499.60700958010364, 350.0212097167969)"><g id="g-29" transform="matrix(1, 0, 0, 1, 0, 0)">
	<g id="g-30">
		<path class="st0" d="M 652 46 C 679.6 46 692.853515625 68.4 692.853515625 96 C 692.853515625 123.6 679.6 146 652 146 C 624.4 146 613.43310546875 123.6 613.43310546875 96 C 613.43310546875 68.4 624.4 46 652 46 Z" style="fill: rgb(51, 51, 51);"/>
	</g>
</g></g><g transform="matrix(0.740535855293274, 0, 0, 0.740535855293274, 162.80601501464844, 346.23301666018176)"><g id="g-33" transform="matrix(1, 0, 0, 1, 0, 0)">
	<g id="g-34">
		<path class="st0" d="M 649.241455078125 72.20633697509766 C 676.841455078125 72.20633697509766 702 68.4 702 96 C 702 123.6 679.6 146 652 146 C 624.4 146 602 123.6 602 96 C 602 68.4 621.641455078125 72.20633697509766 649.241455078125 72.20633697509766 Z" style="fill: rgb(51, 51, 51);"/>
	</g>
</g></g><path d="M 316.17059326171875 320.3916931152344" style="fill: rgb(51, 51, 51); fill-opacity: 1; stroke: rgb(0, 0, 0); stroke-opacity: 1; stroke-width: 0; paint-order: fill;" transform="matrix(1.9600001573562622, 0, 0, 1.9600001573562622, 211.81834613139756, -18.183613901866238)"/><path d="M 165.32423400878906 432.9609375" style="fill: rgb(255, 131, 110); fill-opacity: 1; stroke: rgb(0, 0, 0); stroke-opacity: 1; stroke-width: 0; paint-order: fill;" transform="matrix(1.9600001573562622, 0, 0, 1.9600001573562622, 415.5596817252816, -436.81433926833415)"/><path d="M 355.918701171875 122.3625259399414" style="fill: rgb(255, 131, 110); fill-opacity: 1; stroke: rgb(0, 0, 0); stroke-opacity: 1; stroke-width: 0; paint-order: fill;" transform="matrix(1.5052320019874088, 0, 0, 1.5052320019874088, 180.1364913616004, 460.24671297574605)"/><path d="M 355.918701171875 122.3625259399414" style="fill: rgb(255, 131, 110); fill-opacity: 1; stroke: rgb(0, 0, 0); stroke-opacity: 1; stroke-width: 0; paint-order: fill;" transform="matrix(1.5052320019874088, 0, 0, 1.5052320019874088, 412.1480295348773, 461.75768599744333)"/><path d="M 92.13972473144531 248.20547485351562 L 87.4124526977539 244.52870178222656" style="fill: rgb(255, 210, 176); fill-opacity: 1; stroke: rgb(0, 0, 0); stroke-opacity: 1; stroke-width: 0; paint-order: fill;" transform="matrix(1.9600002765655518, 0, 0, 1.9600002765655518, 155.72787785766707, -189.9523740924034)"/><g transform="matrix(-1.085868000984192, 0.268949031829834, -0.268949031829834, -1.085868000984192, 1184.369372608644, 329.58363664978395)"><g id="g-41" transform="matrix(1, 0, 0, 1, 0, 0)">
	<g id="g-42">
		<path class="st0" d="M355.7,185.2c20.2,7.9,30.5,31.1,22.6,51.2c-8,20.1-30.7,29.9-50.8,22c-2.3-0.9-4.4-2.1-6.5-3.4&#10;&#9;&#9;&#9;c11.8,25.2,41.9,36.1,67.1,24.2c11.6-5.4,20.7-15.1,25.4-27c10-25.9-2.9-54.9-28.7-64.9C375.5,183.8,365.4,183,355.7,185.2z" style="fill: rgb(126, 95, 80);"/>
	</g>
</g></g><g transform="matrix(-1.1183385848999023, 0.027694579213857658, -0.027694579213857658, -1.1183385848999023, 1148.5540649914565, 463.8789857708778)"><g id="g-43" transform="matrix(1, 0, 0, 1, 0, 0)">
	<g id="g-44">
		<path class="st0" d="M355.7,185.2c20.2,7.9,30.5,31.1,22.6,51.2c-8,20.1-30.7,29.9-50.8,22c-2.3-0.9-4.4-2.1-6.5-3.4&#10;&#9;&#9;&#9;c11.8,25.2,41.9,36.1,67.1,24.2c11.6-5.4,20.7-15.1,25.4-27c10-25.9-2.9-54.9-28.7-64.9C375.5,183.8,365.4,183,355.7,185.2z" style="fill: rgb(126, 95, 80);"/>
	</g>
</g></g><path d="M 91.5616226196289 425.76593017578125" style="fill: rgb(227, 178, 143); fill-opacity: 1; stroke: rgb(0, 0, 0); stroke-opacity: 1; stroke-width: 0; paint-order: fill;" transform="matrix(1.9600001573562622, 0, 0, 1.9600001573562622, 209.99998474121082, 0)"/><g transform="matrix(9.42799472808838, 0, 0, 9.42799472808838, 493.1337280273438, 530.9421237206778)"><path d="M12.4,8h7.2l1.6-3.1c0.3-0.6,0.3-1.4-0.1-1.9S20.1,2,19.4,2h-6.8c-0.7,0-1.3,0.4-1.7,0.9s-0.4,1.3-0.1,1.9L12.4,8z"/><path d="M20.8,18H16c-0.6,0-1-0.4-1-1s0.4-1,1-1h4.4l-1.2-6h-6.4l-2.6,12.8c-0.2,1,0.1,2,0.8,2.7l3.5,3.5c0.4,0.4,0.9,0.6,1.4,0.6&#10;&#9;s1-0.2,1.4-0.6l3.5-3.5c0.7-0.7,1-1.7,0.8-2.7L20.8,18z"/></g></g></svg>