<?xml version="1.0" encoding="utf-8"?>
<svg id="master-artboard" viewBox="0 0 100 100" version="1.1" xmlns="http://www.w3.org/2000/svg" x="0px" y="0px" style="enable-background:new 0 0 336 235.2;" width="100px" height="100px"><rect id="ee-background" x="0" y="0" width="100" height="100" style="fill: white; fill-opacity: 0; pointer-events: none;"/><g transform="matrix(0.9899999499320984, 0, 0, 0.9900000095367432, -595.4672433902435, -45.00769444004834)"><g id="g-1" transform="matrix(1, 0, 0, 1, 0, 0)">
	<g id="g-2">
		<path class="st0" d="M652,46c27.6,0,50,22.4,50,50s-22.4,50-50,50s-50-22.4-50-50S624.4,46,652,46z" style="fill: rgb(197, 198, 199);"/>
	</g>
</g></g><g transform="matrix(0.14704690873622892, 0, 0, 0.1423487514257431, 31.451003784112018, 35.21571051822064)"><g style="stroke: none; stroke-width: 0; stroke-dasharray: none; stroke-linecap: butt; stroke-linejoin: miter; stroke-miterlimit: 10; fill: none; fill-rule: nonzero; opacity: 1;" transform="matrix(3.5124998092651367, 0, 0, 3.512500286102295, -35.516061258974474, -43.37444305419922)">
	<path d="M 45 70.968 c -16.013 0 -29.042 -13.028 -29.042 -29.042 c 0 -1.712 1.388 -3.099 3.099 -3.099 c 1.712 0 3.099 1.388 3.099 3.099 C 22.157 54.522 32.404 64.77 45 64.77 c 12.595 0 22.843 -10.248 22.843 -22.843 c 0 -1.712 1.387 -3.099 3.099 -3.099 s 3.099 1.388 3.099 3.099 C 74.042 57.94 61.013 70.968 45 70.968 z" style="stroke: none; stroke-width: 1; stroke-dasharray: none; stroke-linecap: butt; stroke-linejoin: miter; stroke-miterlimit: 10; fill: rgb(0,0,0); fill-rule: nonzero; opacity: 1;" transform=" matrix(1 0 0 1 0 0) " stroke-linecap="round"/>
	<path d="M 45 60.738 L 45 60.738 c -10.285 0 -18.7 -8.415 -18.7 -18.7 V 18.7 C 26.3 8.415 34.715 0 45 0 h 0 c 10.285 0 18.7 8.415 18.7 18.7 v 23.337 C 63.7 52.322 55.285 60.738 45 60.738 z" style="stroke: none; stroke-width: 1; stroke-dasharray: none; stroke-linecap: butt; stroke-linejoin: miter; stroke-miterlimit: 10; fill: rgb(0,0,0); fill-rule: nonzero; opacity: 1;" transform=" matrix(1 0 0 1 0 0) " stroke-linecap="round"/>
	<path d="M 45 89.213 c -1.712 0 -3.099 -1.387 -3.099 -3.099 V 68.655 c 0 -1.712 1.388 -3.099 3.099 -3.099 c 1.712 0 3.099 1.387 3.099 3.099 v 17.459 C 48.099 87.826 46.712 89.213 45 89.213 z" style="stroke: none; stroke-width: 1; stroke-dasharray: none; stroke-linecap: butt; stroke-linejoin: miter; stroke-miterlimit: 10; fill: rgb(0,0,0); fill-rule: nonzero; opacity: 1;" transform=" matrix(1 0 0 1 0 0) " stroke-linecap="round"/>
	<path d="M 55.451 90 H 34.549 c -1.712 0 -3.099 -1.387 -3.099 -3.099 s 1.388 -3.099 3.099 -3.099 h 20.901 c 1.712 0 3.099 1.387 3.099 3.099 S 57.163 90 55.451 90 z" style="stroke: none; stroke-width: 1; stroke-dasharray: none; stroke-linecap: butt; stroke-linejoin: miter; stroke-miterlimit: 10; fill: rgb(0,0,0); fill-rule: nonzero; opacity: 1;" transform=" matrix(1 0 0 1 0 0) " stroke-linecap="round"/>
</g></g></svg>