<?xml version="1.0" encoding="utf-8"?>
<svg id="master-artboard" viewBox="0 0 100 100" version="1.1" xmlns="http://www.w3.org/2000/svg" x="0px" y="0px" style="enable-background:new 0 0 1400 980;" width="100px" height="100px"><rect id="ee-background" x="0" y="0" width="100" height="100" style="fill: white; fill-opacity: 0; pointer-events: none;"/><g transform="matrix(0.9899998903274536, 0, 0, 0.9899998903274536, -595.4368156975142, -44.99689717944794)"><g id="g-1" transform="matrix(1, 0, 0, 1, 0, 0)">
	<g id="g-2" transform="matrix(1, 0, 0, 1, -0.24219547408654307, -0.2421954740865946)">
		<path class="st0" d="M652,46c27.6,0,50,22.4,50,50s-22.4,50-50,50s-50-22.4-50-50S624.4,46,652,46z" style="fill: rgb(197, 198, 199);"/>
	</g>
</g></g><g transform="matrix(1.5870497226715088, 0, 0, 1.5846607685089111, 24.68351045182581, 24.73021995050631)"><title>stop</title><path d="M5.92 24.096q0 0.832 0.576 1.408t1.44 0.608h16.128q0.832 0 1.44-0.608t0.576-1.408v-16.16q0-0.832-0.576-1.44t-1.44-0.576h-16.128q-0.832 0-1.44 0.576t-0.576 1.44v16.16z"/></g></svg>